<svg height="24pt" viewBox="-92 0 512 512" width="24pt" xmlns="http://www.w3.org/2000/svg"><path d="m318.363281 88.066406.011719-.015625-38.546875-22.355469c-1.4375-.828124-3.015625-1.441406-4.753906-1.777343l-192.359375-36.777344c-6.269532-15.890625-21.75-27.140625-39.867188-27.140625-23.664062 0-42.847656 19.183594-42.847656 42.847656v426.304688c0 23.664062 19.183594 42.847656 42.847656 42.847656 23.664063 0 42.847656-19.183594 42.847656-42.847656v-106.050782l228.050782-207.410156c18.328125-24.691406 19.859375-59.050781 4.617187-67.625zm0 0" fill="#af4d21"/><path d="m313.746094 86.363281-228.066406-43.65625v320.414063l228.066406-207.429688c20.011718-26.960937 20.011718-65.476562 0-69.328125zm0 0" fill="#e9662c"/><path d="m42.847656 512c-23.664062 0-42.847656-19.183594-42.847656-42.847656v-426.304688c0-23.664062 19.183594-42.847656 42.847656-42.847656 23.664063 0 42.847656 19.183594 42.847656 42.847656v426.304688c0 23.664062-19.183593 42.847656-42.847656 42.847656zm0 0" fill="#ebaf3c"/></svg>