<?xml version="1.0" encoding="iso-8859-1"?>
<!-- Generator: Adobe Illustrator 19.0.0, SVG Export Plug-In . SVG Version: 6.00 Build 0)  -->
<svg height="24pt" width="24pt" version="1.1" id="Layer_1" xmlns="http://www.w3.org/2000/svg" xmlns:xlink="http://www.w3.org/1999/xlink" x="0px" y="0px"
	 viewBox="0 0 512.001 512.001" style="enable-background:new 0 0 512.001 512.001;" xml:space="preserve">
<path style="fill:#8FCC05;" d="M325.805,429.541c32.673,18.864,32.835,49.445,0.374,68.309
	c-32.461,18.864-85.256,18.87-117.928,0.006s-32.845-49.45-0.384-68.314S293.132,410.677,325.805,429.541z"/>
<g>
	<path style="fill:#A66206;" d="M315.255,28.707c0.304-7.403-4.429-14.87-14.216-20.52c-18.908-10.916-49.465-10.916-68.249,0
		c-9.361,5.44-14.03,12.566-14.021,19.696c0-0.023-0.003-0.046-0.003-0.069v436.632c-0.021,7.2,3.552,14.41,13.066,19.904
		c18.908,10.916,49.459,10.912,68.243-0.004c9.333-5.424,15.185-12.522,15.206-19.629V28.085
		C315.282,28.293,315.264,28.5,315.255,28.707z"/>
	<path style="fill:#A66206;" d="M315.283,28.085v436.632c-0.02,7.108-5.872,14.206-15.206,19.629
		c-18.784,10.916-49.336,10.92-68.242,0.004c-9.514-5.493-13.087-12.704-13.066-19.904V27.816c-0.021,7.2,4.732,14.41,14.246,19.904
		c18.908,10.916,49.459,10.912,68.242-0.004C310.59,42.292,315.263,35.194,315.283,28.085z"/>
</g>
<path style="fill:#884D01;" d="M301.256,47.716c9.333-5.424,14.006-12.522,14.026-19.629v436.632
	c-0.02,7.108-5.872,14.206-15.206,19.63L301.256,47.716z"/>
<path style="fill:#D07400;" d="M301.04,8.187c18.908,10.916,19,28.613,0.217,39.529c-18.784,10.916-49.336,10.92-68.242,0.004
	c-18.908-10.916-19.007-28.616-0.223-39.532S282.132-2.729,301.04,8.187z"/>
<polygon style="fill:#884D01;" points="97.705,221.774 146.216,193.583 189.077,168.685 140.566,196.877 "/>
<g>
	<polygon style="fill:#A66206;" points="414.296,298.716 189.077,168.685 140.566,196.877 97.705,221.774 140.285,296.008 
		365.504,426.037 414.014,397.846 371.439,323.62 	"/>
	<polygon style="fill:#A66206;" points="322.924,351.805 371.435,323.613 414.014,397.846 365.504,426.037 	"/>
</g>
<polygon style="fill:#F18700;" points="140.566,196.877 189.077,168.685 414.296,298.716 365.785,326.906 "/>
<polygon style="fill:#D07400;" points="365.785,326.906 322.924,351.805 365.504,426.037 140.285,296.008 97.705,221.774 
	140.566,196.877 "/>
<polygon style="fill:#884D01;" points="97.705,144.732 146.215,116.541 189.081,91.641 140.571,119.832 "/>
<g>
	<polygon style="fill:#A66206;" points="371.711,147.44 146.496,17.413 97.986,45.604 140.571,119.832 97.705,144.732 
		322.92,274.761 365.786,249.86 414.296,221.669 	"/>
	<polygon style="fill:#A66206;" points="323.201,175.632 371.711,147.44 414.296,221.669 365.786,249.86 	"/>
</g>
<polygon style="fill:#F18700;" points="97.986,45.604 146.496,17.413 371.711,147.44 323.201,175.632 "/>
<polygon style="fill:#D07400;" points="323.201,175.632 365.786,249.86 322.92,274.761 97.705,144.732 140.571,119.832 
	97.986,45.604 "/>
<g>
	<polygon style="fill:#A66206;" points="312.565,189.906 167.754,106.299 167.665,137.711 312.477,221.318 	"/>
	<polygon style="fill:#A66206;" points="313.182,233.583 192.748,164.051 192.715,175.933 313.147,245.465 	"/>
	<polygon style="fill:#A66206;" points="290.91,303.541 146.098,219.934 146.01,251.346 290.82,334.954 	"/>
	<polygon style="fill:#A66206;" points="266.476,331.876 146.043,262.345 146.01,274.226 266.443,343.759 	"/>
</g>
<g>
</g>
<g>
</g>
<g>
</g>
<g>
</g>
<g>
</g>
<g>
</g>
<g>
</g>
<g>
</g>
<g>
</g>
<g>
</g>
<g>
</g>
<g>
</g>
<g>
</g>
<g>
</g>
<g>
</g>
</svg>
