<?xml version="1.0" encoding="iso-8859-1"?>
<!-- Generator: Adobe Illustrator 19.0.0, SVG Export Plug-In . SVG Version: 6.00 Build 0)  -->
<svg version="1.1" id="Layer_1" xmlns="http://www.w3.org/2000/svg" xmlns:xlink="http://www.w3.org/1999/xlink" x="0px" y="0px"
	 viewBox="0 0 512.001 512.001" style="enable-background:new 0 0 512.001 512.001;" xml:space="preserve">
<path style="fill:#8FCC05;" d="M336.33,429.541c32.673,18.864,32.835,49.445,0.374,68.309
	c-32.461,18.864-85.256,18.87-117.929,0.006c-32.672-18.864-32.845-49.45-0.384-68.314
	C250.852,410.677,303.657,410.677,336.33,429.541z"/>
<g>
	<path style="fill:#3E3D43;" d="M325.78,28.707c0.304-7.403-4.429-14.87-14.216-20.52c-18.908-10.916-49.465-10.916-68.249,0
		c-9.361,5.441-14.03,12.566-14.021,19.696c0-0.023-0.003-0.046-0.003-0.069v436.632c-0.021,7.2,3.552,14.41,13.066,19.904
		c18.908,10.916,49.459,10.912,68.243-0.004c9.333-5.424,15.185-12.521,15.206-19.629V28.085
		C325.807,28.293,325.789,28.5,325.78,28.707z"/>
	<path style="fill:#3E3D43;" d="M325.807,28.085v436.632c-0.02,7.108-5.872,14.206-15.206,19.629
		c-18.784,10.916-49.336,10.92-68.243,0.004c-9.514-5.493-13.087-12.704-13.066-19.904V27.816c-0.021,7.2,4.732,14.41,14.246,19.903
		c18.907,10.916,49.459,10.912,68.243-0.004C321.115,42.292,325.787,35.194,325.807,28.085z"/>
</g>
<path style="fill:#2E2E30;" d="M311.781,47.716c9.333-5.424,14.006-12.521,14.026-19.629v436.632
	c-0.02,7.108-5.872,14.206-15.206,19.63L311.781,47.716z"/>
<path style="fill:#57565C;" d="M311.564,8.187c18.908,10.916,19,28.613,0.217,39.529c-18.785,10.916-49.336,10.92-68.243,0.004
	s-19.007-28.616-0.223-39.532S292.658-2.729,311.564,8.187z"/>
<polygon style="fill:#40A559;" points="135.258,7.717 100.924,27.671 100.924,148.394 376.743,307.638 411.077,287.685 
	411.077,166.961 "/>
<polygon style="fill:#378B4F;" points="376.743,186.915 411.077,166.961 411.077,287.685 376.743,307.638 "/>
<polygon style="fill:#4DBA69;" points="100.924,27.671 135.258,7.717 411.077,166.961 376.743,186.915 "/>
<polygon style="fill:#40A559;" points="376.743,186.915 376.743,307.638 100.924,148.394 100.924,27.671 "/>
<g>
	<polygon style="fill:#D2EDDA;" points="346.674,200.754 131.081,75.982 130.992,107.395 346.674,232.167 	"/>
	<polygon style="fill:#D2EDDA;" points="329.11,241.278 148.59,136.947 148.556,148.83 329.076,253.16 	"/>
</g>
<g>
</g>
<g>
</g>
<g>
</g>
<g>
</g>
<g>
</g>
<g>
</g>
<g>
</g>
<g>
</g>
<g>
</g>
<g>
</g>
<g>
</g>
<g>
</g>
<g>
</g>
<g>
</g>
<g>
</g>
</svg>
