<?xml version="1.0" encoding="iso-8859-1"?>
<!-- Generator: Adobe Illustrator 19.0.0, SVG Export Plug-In . SVG Version: 6.00 Build 0)  -->
<svg height="24pt" width="24pt" version="1.1" id="Capa_1" xmlns="http://www.w3.org/2000/svg" xmlns:xlink="http://www.w3.org/1999/xlink" x="0px" y="0px"
	 viewBox="0 0 512 512" style="enable-background:new 0 0 512 512;" xml:space="preserve">
<path style="fill:#ACDD58;" d="M414.85,382.731c0.173-61.317-35.562-133.715-84.467-177.831l22.771-13.234
	c13.734-7.982,22.25-24.954,22.319-49.077c0.138-48.557-34.005-107.696-76.263-132.093c-21.267-12.279-40.536-13.419-54.45-5.333
	l-84.456,49.081c0.045-0.026,0.091-0.049,0.136-0.075c-13.813,7.949-22.386,24.949-22.455,49.149
	c-0.089,31.259,14.039,66.894,35.382,94.831l-42.008,24.413c0.185-0.108,0.374-0.208,0.56-0.313
	c-21.238,12.015-34.437,37.98-34.542,75.031l-0.228,80.189L330.166,512l0,0l0,0l0,0l0,0l84.456-49.081L414.85,382.731z"/>
<g>
	<path style="fill:#8DC43D;" d="M131.36,222.561l84.456-49.08c16.845-9.789,38.844-10.698,63.429-1.262l-84.456,49.08
		C170.204,211.865,148.204,212.773,131.36,222.561z"/>
	<path style="fill:#8DC43D;" d="M318.187,194.702l-84.456,49.08c55.045,42.447,96.851,121.719,96.662,188.028L330.166,512
		l84.456-49.081l0.228-80.189C415.038,316.421,373.231,237.149,318.187,194.702z"/>
</g>
<path style="fill:#CCFF69;" d="M299.209,10.496C277.943-1.782,258.674-2.922,244.76,5.164l-84.456,49.081
	c13.914-8.085,33.183-6.945,54.449,5.332c42.258,24.397,76.401,83.536,76.263,132.093c-0.068,24.123-8.585,41.095-22.319,49.077
	l84.456-49.081c13.734-7.982,22.25-24.954,22.319-49.077C375.61,94.032,341.467,34.893,299.209,10.496z"/>
<path style="fill:#ACDD58;" d="M214.753,59.577c42.258,24.397,76.401,83.536,76.263,132.094
	c-0.116,40.827-24.43,61.173-57.286,52.112c55.045,42.447,96.851,121.719,96.662,188.028L330.166,512L97.15,377.467l0.228-80.189
	c0.188-66.31,42.306-97.128,97.412-75.98c-32.798-28.845-56.919-77.154-56.803-117.982C138.123,54.761,172.495,35.18,214.753,59.577
	z"/>
<g>
</g>
<g>
</g>
<g>
</g>
<g>
</g>
<g>
</g>
<g>
</g>
<g>
</g>
<g>
</g>
<g>
</g>
<g>
</g>
<g>
</g>
<g>
</g>
<g>
</g>
<g>
</g>
<g>
</g>
</svg>
